<svg width="62" height="36" viewBox="0 0 62 36" fill="none" xmlns="http://www.w3.org/2000/svg">
<path d="M18.63 24.36C16.63 26.3 14.17 27.27 11.25 27.27C8.33 27.27 5.87 26.29 3.87 24.33C1.91 22.43 0.93 20.07 0.93 17.25C0.93 14.43 1.9 12.08 3.84 10.2C5.86 8.22 8.33 7.23 11.25 7.23C14.21 7.23 16.68 8.22 18.66 10.2C20.58 12.06 21.54 14.41 21.54 17.25C21.54 20.05 20.57 22.42 18.63 24.36ZM11.25 23.22C13.01 23.22 14.42 22.67 15.48 21.57C16.66 20.43 17.25 18.99 17.25 17.25C17.25 15.59 16.68 14.17 15.54 12.99C14.4 11.85 12.97 11.28 11.25 11.28C9.51 11.28 8.09 11.85 6.99 12.99C5.83 14.15 5.25 15.57 5.25 17.25C5.25 18.95 5.82 20.39 6.96 21.57C8.12 22.67 9.55 23.22 11.25 23.22ZM26.5907 10.74C25.8507 10.74 25.2307 10.51 24.7307 10.05C24.2307 9.57 23.9807 8.97 23.9807 8.25C23.9807 7.53 24.2307 6.94 24.7307 6.48C25.2307 6.02 25.8507 5.79 26.5907 5.79C27.3307 5.79 27.9507 6.02 28.4507 6.48C28.9507 6.94 29.2007 7.53 29.2007 8.25C29.2007 8.97 28.9407 9.57 28.4207 10.05C27.9207 10.51 27.3107 10.74 26.5907 10.74ZM20.5907 32.7L21.2807 29.07C21.6007 29.23 22.0107 29.31 22.5107 29.31C23.7907 29.31 24.4307 28.52 24.4307 26.94V12.39H28.5407V27.06C28.5407 28.86 28.0407 30.33 27.0407 31.47C26.0407 32.63 24.7107 33.21 23.0507 33.21C22.0707 33.21 21.2507 33.04 20.5907 32.7ZM31.8805 14.1L32.3605 6H36.7105L36.8305 6.48L34.4005 14.1H31.8805ZM47.9834 27L47.7734 25.26C46.3334 26.6 44.7134 27.27 42.9134 27.27C41.2734 27.27 39.9534 26.88 38.9534 26.1C37.9534 25.3 37.4534 24.18 37.4534 22.74C37.4534 21.36 38.0134 20.27 39.1334 19.47C40.2534 18.65 41.6534 18.24 43.3334 18.24C44.5934 18.24 45.8634 18.46 47.1434 18.9C47.1434 17.78 46.8834 16.96 46.3634 16.44C45.8234 15.9 45.0034 15.63 43.9034 15.63C42.4434 15.63 41.0334 16.2 39.6734 17.34L37.6634 14.4C39.6034 12.88 41.8334 12.12 44.3534 12.12C46.5534 12.12 48.2534 12.71 49.4534 13.89C50.6534 15.03 51.2534 16.54 51.2534 18.42V27H47.9834ZM41.6234 22.5C41.6234 22.98 41.8234 23.36 42.2234 23.64C42.6434 23.9 43.1934 24.03 43.8734 24.03C45.0934 24.03 46.1834 23.67 47.1434 22.95V21.42C46.0234 21.04 45.0134 20.85 44.1134 20.85C43.3534 20.85 42.7434 21 42.2834 21.3C41.8434 21.6 41.6234 22 41.6234 22.5Z" fill="white"/>
<circle cx="59" cy="26" r="3" fill="white"/>
</svg>
