<svg width="36" height="36" viewBox="0 0 36 36" fill="none" xmlns="http://www.w3.org/2000/svg">
<g clip-path="url(#clip0)">
<path d="M31.3379 18.1759L27.5905 12.389C27.3001 11.9405 26.8076 11.6727 26.2732 11.6727H9.73945C9.2059 11.6727 8.71392 11.9398 8.42337 12.3872L4.66435 18.1748C4.28021 18.7662 4.33955 19.5469 4.80865 20.0734L16.828 33.5673C17.1255 33.9013 17.5526 34.0929 17.9998 34.0929C17.9999 34.0929 17.9998 34.0929 17.9999 34.0929C18.447 34.0929 18.8742 33.9013 19.1717 33.5674L31.1924 20.0727C31.6608 19.5468 31.7206 18.7668 31.3379 18.1759ZM25.5141 13.0181L22.3626 17.8915L19.2092 13.0181H25.5141ZM21.1262 18.4574H14.8734L17.9998 13.6258L21.1262 18.4574ZM16.7904 13.0183L13.6457 17.8782L10.502 13.0183H16.7904ZM9.25804 13.5723L12.4179 18.4574H6.08518L9.25804 13.5723ZM6.36935 19.8029H13.1402L16.7202 31.4235L6.36935 19.8029ZM17.9998 31.0069L14.548 19.8029H21.4516L17.9998 31.0069ZM19.2793 31.4239L22.8595 19.8029H29.6309L19.2793 31.4239ZM23.599 18.4574L26.756 13.5756L29.9172 18.4574H23.599Z" fill="#011E28"/>
<path d="M2.81883 18.4574H1.45094C1.07945 18.4574 0.778198 18.7586 0.778198 19.1301C0.778198 19.5017 1.07945 19.8029 1.45094 19.8029H2.81883C3.19032 19.8029 3.49157 19.5017 3.49157 19.1301C3.49157 18.7586 3.19032 18.4574 2.81883 18.4574Z" fill="#011E28"/>
<path d="M34.5499 18.4574H33.182C32.8105 18.4574 32.5093 18.7586 32.5093 19.1301C32.5093 19.5017 32.8105 19.8029 33.182 19.8029H34.5499C34.9214 19.8029 35.2227 19.5017 35.2227 19.1301C35.2227 18.7586 34.9214 18.4574 34.5499 18.4574Z" fill="#011E28"/>
<path d="M30.187 6.95582C29.9242 6.69311 29.4983 6.69311 29.2355 6.95582L27.0009 9.19047C26.7382 9.45317 26.7382 9.87915 27.0009 10.1419C27.1323 10.2732 27.3045 10.3389 27.4766 10.3389C27.6488 10.3389 27.8209 10.2732 27.9523 10.1419L30.187 7.90721C30.4497 7.64451 30.4497 7.21859 30.187 6.95582Z" fill="#011E28"/>
<path d="M9.02919 9.17843L6.79461 6.9437C6.53197 6.681 6.10612 6.681 5.84315 6.9437C5.58044 7.20641 5.58044 7.63239 5.84315 7.8951L8.0778 10.1298C8.20918 10.2611 8.38134 10.3268 8.55349 10.3268C8.72565 10.3268 8.8978 10.2611 9.02919 10.1298C9.2919 9.86712 9.2919 9.44107 9.02919 9.17843Z" fill="#011E28"/>
<path d="M18.0175 1.90796C17.646 1.90796 17.3447 2.20915 17.3447 2.5807V6.96483C17.3447 7.33639 17.6459 7.63757 18.0175 7.63757C18.389 7.63757 18.6902 7.33639 18.6902 6.96483V2.5807C18.6902 2.20921 18.389 1.90796 18.0175 1.90796Z" fill="#011E28"/>
<path d="M18.4928 8.76508C18.3677 8.63995 18.1942 8.56796 18.0172 8.56796C17.8403 8.56796 17.6667 8.63995 17.5416 8.76508C17.4165 8.89021 17.3445 9.06377 17.3445 9.2407C17.3445 9.41831 17.4164 9.5912 17.5416 9.71633C17.6667 9.84213 17.8403 9.91344 18.0172 9.91344C18.1942 9.91344 18.3677 9.84213 18.4928 9.71633C18.6186 9.5912 18.69 9.41763 18.69 9.2407C18.69 9.06377 18.6186 8.89027 18.4928 8.76508Z" fill="#011E28"/>
</g>
<defs>
<clipPath id="clip0">
<rect width="34.4444" height="34.4444" fill="white" transform="translate(0.778198 0.778259)"/>
</clipPath>
</defs>
</svg>
